<mxfile host="app.diagrams.net" modified="2022-08-19T17:00:00.582Z" agent="5.0 (Windows NT 10.0; Win64; x64) AppleWebKit/537.36 (KHTML, like Gecko) Chrome/104.0.0.0 Safari/537.36" etag="P310ESceczyIT4mVB5ps" version="20.2.5" type="github">
  <diagram id="kgpKYQtTHZ0yAKxKKP6v" name="Page-1">
    <mxGraphModel dx="2414" dy="936" grid="0" gridSize="10" guides="1" tooltips="1" connect="1" arrows="1" fold="1" page="1" pageScale="1" pageWidth="850" pageHeight="1100" math="0" shadow="0">
      <root>
        <mxCell id="0" />
        <mxCell id="1" parent="0" />
        <mxCell id="3nuBFxr9cyL0pnOWT2aG-1" value="Create Annoucement" style="shape=table;childLayout=tableLayout;startSize=40;collapsible=0;recursiveResize=0;expand=0;fillColor=none;fontStyle=1" parent="1" vertex="1">
          <mxGeometry x="-174" y="95" width="680" height="881" as="geometry" />
        </mxCell>
        <mxCell id="3nuBFxr9cyL0pnOWT2aG-3" value="" style="shape=tableRow;horizontal=0;swimlaneHead=0;swimlaneBody=0;top=0;left=0;bottom=0;right=0;fillColor=none;points=[[0,0.5],[1,0.5]];portConstraint=eastwest;startSize=0;collapsible=0;recursiveResize=0;expand=0;fontStyle=1;" parent="3nuBFxr9cyL0pnOWT2aG-1" vertex="1">
          <mxGeometry y="40" width="680" height="841" as="geometry" />
        </mxCell>
        <mxCell id="3nuBFxr9cyL0pnOWT2aG-4" value="" style="swimlane;swimlaneHead=0;swimlaneBody=0;connectable=0;fillColor=none;startSize=40;collapsible=0;recursiveResize=0;expand=0;fontStyle=1;" parent="3nuBFxr9cyL0pnOWT2aG-3" vertex="1">
          <mxGeometry width="330" height="841" as="geometry">
            <mxRectangle width="330" height="841" as="alternateBounds" />
          </mxGeometry>
        </mxCell>
        <mxCell id="3nuBFxr9cyL0pnOWT2aG-7" value="Receive Announcement Info" style="rounded=0;whiteSpace=wrap;html=1;" parent="3nuBFxr9cyL0pnOWT2aG-4" vertex="1">
          <mxGeometry x="180" y="140" width="130" height="40" as="geometry" />
        </mxCell>
        <mxCell id="u42V9gx1YOsnKbqX93Dj-2" value="Validate info" style="rounded=0;whiteSpace=wrap;html=1;" parent="3nuBFxr9cyL0pnOWT2aG-4" vertex="1">
          <mxGeometry x="200" y="209" width="90" height="40" as="geometry" />
        </mxCell>
        <mxCell id="u42V9gx1YOsnKbqX93Dj-3" value="Send request create Announcement" style="rounded=0;whiteSpace=wrap;html=1;" parent="3nuBFxr9cyL0pnOWT2aG-4" vertex="1">
          <mxGeometry x="186" y="272" width="124" height="40" as="geometry" />
        </mxCell>
        <mxCell id="u42V9gx1YOsnKbqX93Dj-12" value="&lt;b&gt;OTPA UI Client&lt;/b&gt;" style="text;html=1;strokeColor=none;fillColor=none;align=center;verticalAlign=middle;whiteSpace=wrap;rounded=0;" parent="3nuBFxr9cyL0pnOWT2aG-4" vertex="1">
          <mxGeometry x="200" y="10" width="91" height="30" as="geometry" />
        </mxCell>
        <mxCell id="u42V9gx1YOsnKbqX93Dj-13" value="&lt;span style=&quot;font-size: 13px;&quot;&gt;&lt;b&gt;User&lt;/b&gt;&lt;/span&gt;" style="text;html=1;strokeColor=none;fillColor=none;align=center;verticalAlign=middle;whiteSpace=wrap;rounded=0;" parent="3nuBFxr9cyL0pnOWT2aG-4" vertex="1">
          <mxGeometry x="20" y="10" width="110" height="30" as="geometry" />
        </mxCell>
        <mxCell id="u42V9gx1YOsnKbqX93Dj-14" value="Input Announcement Info" style="rounded=0;whiteSpace=wrap;html=1;" parent="3nuBFxr9cyL0pnOWT2aG-4" vertex="1">
          <mxGeometry x="20" y="70" width="100" height="40" as="geometry" />
        </mxCell>
        <mxCell id="u42V9gx1YOsnKbqX93Dj-15" value="Click Create" style="rounded=0;whiteSpace=wrap;html=1;" parent="3nuBFxr9cyL0pnOWT2aG-4" vertex="1">
          <mxGeometry x="20" y="140" width="100" height="40" as="geometry" />
        </mxCell>
        <mxCell id="u42V9gx1YOsnKbqX93Dj-25" value="Receive Respone" style="rounded=0;whiteSpace=wrap;html=1;" parent="3nuBFxr9cyL0pnOWT2aG-4" vertex="1">
          <mxGeometry x="206" y="714" width="90" height="40" as="geometry" />
        </mxCell>
        <mxCell id="u42V9gx1YOsnKbqX93Dj-26" value="Refresh UI" style="rounded=0;whiteSpace=wrap;html=1;" parent="3nuBFxr9cyL0pnOWT2aG-4" vertex="1">
          <mxGeometry x="206" y="779" width="90" height="40" as="geometry" />
        </mxCell>
        <mxCell id="u42V9gx1YOsnKbqX93Dj-30" style="edgeStyle=orthogonalEdgeStyle;rounded=0;orthogonalLoop=1;jettySize=auto;html=1;exitX=0.5;exitY=1;exitDx=0;exitDy=0;" parent="3nuBFxr9cyL0pnOWT2aG-4" edge="1">
          <mxGeometry relative="1" as="geometry">
            <mxPoint x="227.5" y="180" as="sourcePoint" />
            <mxPoint x="227.5" y="180" as="targetPoint" />
          </mxGeometry>
        </mxCell>
        <mxCell id="u42V9gx1YOsnKbqX93Dj-31" style="edgeStyle=orthogonalEdgeStyle;rounded=0;orthogonalLoop=1;jettySize=auto;html=1;exitX=0.5;exitY=1;exitDx=0;exitDy=0;" parent="3nuBFxr9cyL0pnOWT2aG-4" edge="1">
          <mxGeometry relative="1" as="geometry">
            <mxPoint x="227.5" y="250" as="sourcePoint" />
            <mxPoint x="227.5" y="250" as="targetPoint" />
          </mxGeometry>
        </mxCell>
        <mxCell id="u42V9gx1YOsnKbqX93Dj-39" value="" style="endArrow=classic;html=1;rounded=0;exitX=0.5;exitY=1;exitDx=0;exitDy=0;" parent="3nuBFxr9cyL0pnOWT2aG-4" source="u42V9gx1YOsnKbqX93Dj-14" target="u42V9gx1YOsnKbqX93Dj-15" edge="1">
          <mxGeometry width="50" height="50" relative="1" as="geometry">
            <mxPoint x="45" y="160" as="sourcePoint" />
            <mxPoint x="95" y="110" as="targetPoint" />
          </mxGeometry>
        </mxCell>
        <mxCell id="u42V9gx1YOsnKbqX93Dj-54" value="" style="endArrow=classic;html=1;rounded=0;" parent="3nuBFxr9cyL0pnOWT2aG-4" source="u42V9gx1YOsnKbqX93Dj-15" edge="1">
          <mxGeometry width="50" height="50" relative="1" as="geometry">
            <mxPoint x="100" y="220" as="sourcePoint" />
            <mxPoint x="180" y="160" as="targetPoint" />
          </mxGeometry>
        </mxCell>
        <mxCell id="u42V9gx1YOsnKbqX93Dj-70" value="" style="endArrow=classic;html=1;rounded=0;exitX=0.5;exitY=1;exitDx=0;exitDy=0;" parent="3nuBFxr9cyL0pnOWT2aG-4" edge="1">
          <mxGeometry width="50" height="50" relative="1" as="geometry">
            <mxPoint x="247.5" y="754" as="sourcePoint" />
            <mxPoint x="247.5" y="784" as="targetPoint" />
          </mxGeometry>
        </mxCell>
        <mxCell id="u42V9gx1YOsnKbqX93Dj-11" value="" style="endArrow=none;html=1;rounded=0;" parent="3nuBFxr9cyL0pnOWT2aG-4" edge="1">
          <mxGeometry width="50" height="50" relative="1" as="geometry">
            <mxPoint x="155" y="846" as="sourcePoint" />
            <mxPoint x="154.5" as="targetPoint" />
          </mxGeometry>
        </mxCell>
        <mxCell id="c4E9DKU7qMFVGhHhTByR-41" value="" style="endArrow=classic;html=1;rounded=0;entryX=0;entryY=0.5;entryDx=0;entryDy=0;" edge="1" parent="3nuBFxr9cyL0pnOWT2aG-4" target="3nuBFxr9cyL0pnOWT2aG-9">
          <mxGeometry width="50" height="50" relative="1" as="geometry">
            <mxPoint x="312" y="292" as="sourcePoint" />
            <mxPoint x="343" y="291.5" as="targetPoint" />
          </mxGeometry>
        </mxCell>
        <mxCell id="c4E9DKU7qMFVGhHhTByR-45" value="" style="endArrow=classic;html=1;rounded=0;" edge="1" parent="3nuBFxr9cyL0pnOWT2aG-4">
          <mxGeometry width="50" height="50" relative="1" as="geometry">
            <mxPoint x="240.5" y="181" as="sourcePoint" />
            <mxPoint x="240" y="209" as="targetPoint" />
          </mxGeometry>
        </mxCell>
        <mxCell id="c4E9DKU7qMFVGhHhTByR-47" value="" style="endArrow=classic;html=1;rounded=0;" edge="1" parent="3nuBFxr9cyL0pnOWT2aG-4">
          <mxGeometry width="50" height="50" relative="1" as="geometry">
            <mxPoint x="238.5" y="249" as="sourcePoint" />
            <mxPoint x="238" y="277" as="targetPoint" />
          </mxGeometry>
        </mxCell>
        <mxCell id="3nuBFxr9cyL0pnOWT2aG-8" value="" style="swimlane;swimlaneHead=0;swimlaneBody=0;connectable=0;fillColor=none;startSize=40;collapsible=0;recursiveResize=0;expand=0;fontStyle=1;" parent="3nuBFxr9cyL0pnOWT2aG-3" vertex="1">
          <mxGeometry x="330" width="159" height="841" as="geometry">
            <mxRectangle width="159" height="841" as="alternateBounds" />
          </mxGeometry>
        </mxCell>
        <mxCell id="3nuBFxr9cyL0pnOWT2aG-9" value="Receive request" style="rounded=0;whiteSpace=wrap;html=1;" parent="3nuBFxr9cyL0pnOWT2aG-8" vertex="1">
          <mxGeometry x="38" y="272" width="90" height="40" as="geometry" />
        </mxCell>
        <mxCell id="u42V9gx1YOsnKbqX93Dj-19" value="Receive response" style="rounded=0;whiteSpace=wrap;html=1;" parent="3nuBFxr9cyL0pnOWT2aG-8" vertex="1">
          <mxGeometry x="40" y="458" width="90" height="40" as="geometry" />
        </mxCell>
        <mxCell id="u42V9gx1YOsnKbqX93Dj-62" value="" style="endArrow=classic;html=1;rounded=0;exitX=0.5;exitY=1;exitDx=0;exitDy=0;" parent="3nuBFxr9cyL0pnOWT2aG-8" edge="1">
          <mxGeometry width="50" height="50" relative="1" as="geometry">
            <mxPoint x="88" y="498" as="sourcePoint" />
            <mxPoint x="88" y="522" as="targetPoint" />
          </mxGeometry>
        </mxCell>
        <mxCell id="u42V9gx1YOsnKbqX93Dj-63" value="" style="endArrow=classic;html=1;rounded=0;exitX=0.5;exitY=1;exitDx=0;exitDy=0;" parent="3nuBFxr9cyL0pnOWT2aG-8" edge="1">
          <mxGeometry width="50" height="50" relative="1" as="geometry">
            <mxPoint x="90" y="560" as="sourcePoint" />
            <mxPoint x="90" y="590" as="targetPoint" />
          </mxGeometry>
        </mxCell>
        <mxCell id="u42V9gx1YOsnKbqX93Dj-20" value="Log request" style="rounded=0;whiteSpace=wrap;html=1;" parent="3nuBFxr9cyL0pnOWT2aG-8" vertex="1">
          <mxGeometry x="38" y="338" width="90" height="40" as="geometry" />
        </mxCell>
        <mxCell id="c4E9DKU7qMFVGhHhTByR-11" value="Send request create Announcement" style="rounded=0;whiteSpace=wrap;html=1;" vertex="1" parent="3nuBFxr9cyL0pnOWT2aG-8">
          <mxGeometry x="23" y="399" width="124" height="40" as="geometry" />
        </mxCell>
        <mxCell id="c4E9DKU7qMFVGhHhTByR-25" value="Log response" style="rounded=0;whiteSpace=wrap;html=1;" vertex="1" parent="3nuBFxr9cyL0pnOWT2aG-8">
          <mxGeometry x="40" y="520" width="90" height="40" as="geometry" />
        </mxCell>
        <mxCell id="c4E9DKU7qMFVGhHhTByR-27" value="Save data in DB" style="rounded=0;whiteSpace=wrap;html=1;" vertex="1" parent="3nuBFxr9cyL0pnOWT2aG-8">
          <mxGeometry x="44" y="590" width="90" height="40" as="geometry" />
        </mxCell>
        <mxCell id="c4E9DKU7qMFVGhHhTByR-28" value="Log result" style="rounded=0;whiteSpace=wrap;html=1;" vertex="1" parent="3nuBFxr9cyL0pnOWT2aG-8">
          <mxGeometry x="44" y="651" width="90" height="40" as="geometry" />
        </mxCell>
        <mxCell id="u42V9gx1YOsnKbqX93Dj-24" value="Response" style="rounded=0;whiteSpace=wrap;html=1;" parent="3nuBFxr9cyL0pnOWT2aG-8" vertex="1">
          <mxGeometry x="44" y="712" width="90" height="40" as="geometry" />
        </mxCell>
        <mxCell id="c4E9DKU7qMFVGhHhTByR-34" value="" style="endArrow=classic;html=1;rounded=0;exitX=0.5;exitY=1;exitDx=0;exitDy=0;" edge="1" parent="3nuBFxr9cyL0pnOWT2aG-8">
          <mxGeometry width="50" height="50" relative="1" as="geometry">
            <mxPoint x="91" y="630" as="sourcePoint" />
            <mxPoint x="91" y="654" as="targetPoint" />
          </mxGeometry>
        </mxCell>
        <mxCell id="c4E9DKU7qMFVGhHhTByR-35" value="" style="endArrow=classic;html=1;rounded=0;exitX=0.5;exitY=1;exitDx=0;exitDy=0;" edge="1" parent="3nuBFxr9cyL0pnOWT2aG-8">
          <mxGeometry width="50" height="50" relative="1" as="geometry">
            <mxPoint x="92" y="691" as="sourcePoint" />
            <mxPoint x="92" y="715" as="targetPoint" />
          </mxGeometry>
        </mxCell>
        <mxCell id="c4E9DKU7qMFVGhHhTByR-38" value="" style="endArrow=classic;html=1;rounded=0;exitX=0.5;exitY=1;exitDx=0;exitDy=0;" edge="1" parent="3nuBFxr9cyL0pnOWT2aG-8">
          <mxGeometry width="50" height="50" relative="1" as="geometry">
            <mxPoint x="88.5" y="439" as="sourcePoint" />
            <mxPoint x="88.5" y="463" as="targetPoint" />
          </mxGeometry>
        </mxCell>
        <mxCell id="c4E9DKU7qMFVGhHhTByR-39" value="" style="endArrow=classic;html=1;rounded=0;exitX=0.5;exitY=1;exitDx=0;exitDy=0;" edge="1" parent="3nuBFxr9cyL0pnOWT2aG-8">
          <mxGeometry width="50" height="50" relative="1" as="geometry">
            <mxPoint x="88.5" y="381" as="sourcePoint" />
            <mxPoint x="88.5" y="405" as="targetPoint" />
          </mxGeometry>
        </mxCell>
        <mxCell id="c4E9DKU7qMFVGhHhTByR-40" value="" style="endArrow=classic;html=1;rounded=0;" edge="1" parent="3nuBFxr9cyL0pnOWT2aG-8">
          <mxGeometry width="50" height="50" relative="1" as="geometry">
            <mxPoint x="89" y="312" as="sourcePoint" />
            <mxPoint x="88.5" y="340" as="targetPoint" />
          </mxGeometry>
        </mxCell>
        <mxCell id="c4E9DKU7qMFVGhHhTByR-48" value="&lt;b&gt;OTPA UI Backend&lt;/b&gt;" style="text;html=1;strokeColor=none;fillColor=none;align=center;verticalAlign=middle;whiteSpace=wrap;rounded=0;" vertex="1" parent="3nuBFxr9cyL0pnOWT2aG-8">
          <mxGeometry x="25" y="5" width="109" height="30" as="geometry" />
        </mxCell>
        <mxCell id="3nuBFxr9cyL0pnOWT2aG-11" value="OTPA AE" style="swimlane;swimlaneHead=0;swimlaneBody=0;connectable=0;fillColor=none;startSize=40;collapsible=0;recursiveResize=0;expand=0;fontStyle=1;" parent="3nuBFxr9cyL0pnOWT2aG-3" vertex="1">
          <mxGeometry x="489" width="191" height="841" as="geometry">
            <mxRectangle width="191" height="841" as="alternateBounds" />
          </mxGeometry>
        </mxCell>
        <mxCell id="c4E9DKU7qMFVGhHhTByR-23" value="&amp;nbsp;create Announcement" style="rounded=0;whiteSpace=wrap;html=1;" vertex="1" parent="3nuBFxr9cyL0pnOWT2aG-11">
          <mxGeometry x="18" y="395" width="124" height="40" as="geometry" />
        </mxCell>
        <mxCell id="c4E9DKU7qMFVGhHhTByR-24" value="Response" style="rounded=0;whiteSpace=wrap;html=1;" vertex="1" parent="3nuBFxr9cyL0pnOWT2aG-11">
          <mxGeometry x="35" y="457" width="90" height="40" as="geometry" />
        </mxCell>
        <mxCell id="c4E9DKU7qMFVGhHhTByR-36" value="" style="endArrow=classic;html=1;rounded=0;" edge="1" parent="3nuBFxr9cyL0pnOWT2aG-11">
          <mxGeometry width="50" height="50" relative="1" as="geometry">
            <mxPoint x="-14" y="417" as="sourcePoint" />
            <mxPoint x="21" y="417" as="targetPoint" />
          </mxGeometry>
        </mxCell>
        <mxCell id="c4E9DKU7qMFVGhHhTByR-37" style="edgeStyle=orthogonalEdgeStyle;rounded=0;orthogonalLoop=1;jettySize=auto;html=1;exitX=0.5;exitY=1;exitDx=0;exitDy=0;" edge="1" parent="3nuBFxr9cyL0pnOWT2aG-11" source="c4E9DKU7qMFVGhHhTByR-24" target="c4E9DKU7qMFVGhHhTByR-24">
          <mxGeometry relative="1" as="geometry" />
        </mxCell>
        <mxCell id="c4E9DKU7qMFVGhHhTByR-43" value="" style="endArrow=classic;html=1;rounded=0;exitX=0.5;exitY=1;exitDx=0;exitDy=0;" edge="1" parent="3nuBFxr9cyL0pnOWT2aG-11">
          <mxGeometry width="50" height="50" relative="1" as="geometry">
            <mxPoint x="77" y="435" as="sourcePoint" />
            <mxPoint x="77" y="459" as="targetPoint" />
          </mxGeometry>
        </mxCell>
        <mxCell id="u42V9gx1YOsnKbqX93Dj-64" value="" style="endArrow=classic;html=1;rounded=0;exitX=0;exitY=0.5;exitDx=0;exitDy=0;" parent="3nuBFxr9cyL0pnOWT2aG-3" target="u42V9gx1YOsnKbqX93Dj-19" edge="1" source="c4E9DKU7qMFVGhHhTByR-24">
          <mxGeometry width="50" height="50" relative="1" as="geometry">
            <mxPoint x="449.5" y="649.5" as="sourcePoint" />
            <mxPoint x="509.5" y="649.5" as="targetPoint" />
          </mxGeometry>
        </mxCell>
        <mxCell id="c4E9DKU7qMFVGhHhTByR-44" value="" style="endArrow=classic;html=1;rounded=0;exitX=0;exitY=0.5;exitDx=0;exitDy=0;" edge="1" parent="3nuBFxr9cyL0pnOWT2aG-3" source="u42V9gx1YOsnKbqX93Dj-24">
          <mxGeometry width="50" height="50" relative="1" as="geometry">
            <mxPoint x="361" y="737" as="sourcePoint" />
            <mxPoint x="294" y="732" as="targetPoint" />
          </mxGeometry>
        </mxCell>
        <mxCell id="u42V9gx1YOsnKbqX93Dj-73" value="&lt;span style=&quot;font-size:11.0pt;line-height:&lt;br/&gt;120%;font-family:&amp;quot;Arial&amp;quot;,sans-serif;mso-fareast-font-family:Calibri;mso-fareast-theme-font:&lt;br/&gt;minor-latin;mso-ansi-language:EN-GB;mso-fareast-language:EN-US;mso-bidi-language:&lt;br/&gt;AR-SA&quot; lang=&quot;EN-GB&quot;&gt;Process View Diagram&lt;/span&gt;" style="text;html=1;align=center;verticalAlign=middle;resizable=0;points=[];autosize=1;strokeColor=none;fillColor=none;fontSize=13;" parent="1" vertex="1">
          <mxGeometry x="-200" y="21" width="149" height="28" as="geometry" />
        </mxCell>
      </root>
    </mxGraphModel>
  </diagram>
</mxfile>
